<?xml version="1.0" encoding="UTF-8" standalone="no"?>
<svg width="216px" height="279px" viewBox="0 0 216 279" version="1.1" xmlns="http://www.w3.org/2000/svg" xmlns:xlink="http://www.w3.org/1999/xlink" xmlns:sketch="http://www.bohemiancoding.com/sketch/ns">
    <!-- Generator: Sketch 3.0.4 (8054) - http://www.bohemiancoding.com/sketch -->
    <title>fresh4</title>
    <desc>Created with Sketch.</desc>
    <defs></defs>
    <g id="Page-1" stroke="none" stroke-width="1" fill="none" fill-rule="evenodd" sketch:type="MSPage">
        <g id="fresh4" sketch:type="MSLayerGroup">
            <g id="b15_orange" fill="#DA552F" sketch:type="MSShapeGroup">
                <path d="M107.860441,278.720273 C167.430118,278.720273 215.720882,230.470346 215.720882,170.951045 C215.720882,111.431745 167.430118,63.1818182 107.860441,63.1818182 C48.2907644,63.1818182 0,111.431745 0,170.951045 C0,230.470346 48.2907644,278.720273 107.860441,278.720273 Z M147.846924,121.384835 C156.132135,128.308094 160.274678,138.976561 160.274678,153.390558 C160.274678,167.804555 156.047014,178.359528 147.591559,185.055794 C139.136105,191.75206 126.169377,195.100143 108.690987,195.100143 L87.5808298,195.100143 L87.5808298,230 L67.4921316,230 L67.4921316,111 L108.350501,111 C126.396371,111 139.561713,114.461577 147.846924,121.384835 Z" id="Oval"></path>
                <path d="M133.631617,170.5 C137.660726,166.243899 139.67525,160.00171 139.67525,151.773247 C139.67525,143.544785 137.121628,137.7282 132.014306,134.323319 C126.906984,130.918438 118.905634,129.216023 108.010014,129.216023 L87.5808298,129.216023 L87.5808298,176.88412 L110.904149,176.88412 C122.02676,176.88412 129.602507,174.756101 133.631617,170.5 L133.631617,170.5 Z" id="Path"></path>
                <path d="M95.1817647,0 C95.1817647,0 107.854118,2.62204545 107.854118,86.0473182" id="Shape"></path>
                <path d="M107.854118,43.0205 C113.437794,34.0107727 119.856176,28.4381364 126.565441,23.9143182 C133.306324,19.5231818 140.388676,16.4904545 147.749265,14.6139545 C155.1225,12.7437727 162.792941,12.0740455 170.798529,12.7500909 C178.848382,13.5714545 187.144853,15.4416364 196.339265,20.7994545 C190.780882,29.8534091 184.337206,35.4386818 177.640588,39.9561818 C170.918676,44.341 163.83,47.3737273 156.444118,49.1996818 C149.083529,51.0319545 141.400441,51.7016818 133.394853,51.013 C125.338676,50.179 117.029559,48.3277727 107.854118,43.0205 L107.854118,43.0205 Z" id="Shape"></path>
            </g>
            <g id="Capa_1"></g>
        </g>
    </g>
</svg>